<?xml version="1.0" encoding="utf-8"?>
<!-- Generator: Adobe Illustrator 22.1.0, SVG Export Plug-In . SVG Version: 6.00 Build 0)  -->
<svg version="1.1" id="图层_1" xmlns="http://www.w3.org/2000/svg" xmlns:xlink="http://www.w3.org/1999/xlink" x="0px" y="0px"
	 viewBox="0 0 23 23" style="enable-background:new 0 0 23 23;" xml:space="preserve">
<path d="M-17.8,23.9c-2.9,0-5.9,0-8.8,0c-1.1-0.2-2.1-0.4-3.1-1c-2.1-1.3-2.9-3.2-3-5.2c-0.1-1.8,0-3.6,0-5.4c0-1.4,0.2-2.7,1.1-3.9
	c0.2-0.3,0.1-0.4-0.2-0.5c-0.4-0.2-0.9-0.3-1.1-0.7c0,0,0-0.1,0-0.1c0.2-0.5,0.6-0.9,1.2-1.3c0.5-0.3,1.1-0.6,1.7-0.9
	c0.3-0.1,0.4-0.2,0.1-0.5c-0.7-0.7-0.8-1.4-0.3-2.2c0.5-0.8,1.3-1.1,2.4-1.1c3.7,0,7.5,0,11.2,0c1.5,0,2.4,0.6,2.6,1.9
	c0,0.3,0.2,0.3,0.5,0.2c0.4-0.2,0.8-0.3,1.2-0.4c0.4-0.1,0.8-0.2,1,0.2c0.2,0.4-0.1,0.5-0.5,0.7c-0.5,0.2-0.9,0.4-1.5,0.6
	c0.5,0.2,0.9,0.1,1.3,0.1c0.4,0,0.8,0.1,0.8,0.5c0,0.4-0.4,0.4-0.8,0.4c-0.4,0-0.8,0-1.2,0c0.5,0.3,1,0.6,1.4,1.1
	c0.5,0.7,0.4,1-0.5,1.2c-0.4,0.1-0.4,0.3-0.2,0.5c0.7,0.9,1.1,2,1.1,3.1c0,2.4,0.1,4.8,0,7.1c-0.1,2.5-1.8,4.4-4.7,5.1
	C-16.8,23.7-17.3,23.8-17.8,23.9z M-31.6,14.5c0,1.2,0,2.1,0,3c0,1,0.3,1.9,0.8,2.8c0.9,1.6,2.4,2.4,4.5,2.6
	c1.8,0.2,3.5,0.1,5.3,0.1c1,0,2,0,3-0.1c3-0.4,4.7-1.6,5.2-3.9c0.1-0.4,0.2-0.9,0.2-1.3c0-1.9,0-3.8,0-5.6c0-0.8-0.1-1.5-0.3-2.2
	c-0.4-1-0.7-1.8-2.2-2.1c-1-0.2-2-0.3-3,0c-0.8,0.2-1.7,0.3-2.4,0c-1-0.4-1.9-0.3-2.9,0.1c-0.8,0.3-1.6,0.3-2.4-0.1
	c-0.8-0.4-1.6-0.3-2.4,0c-0.5,0.2-1.1,0.4-1.7,0.4c-0.3,0-0.4,0.2-0.6,0.3c-0.5,0.7-0.8,1.4-0.9,2.1C-31.7,12.1-31.5,13.5-31.6,14.5
	z M-22.2,2.1C-22.2,2.1-22.2,2.1-22.2,2.1c-1.9,0-3.8,0-5.8,0c-0.8,0-1.4,0.4-1.4,1c0,0.6,0.6,1.1,1.4,1.1c0.3,0,0.6,0,0.9,0
	c3.4,0,6.7,0,10.1,0c0.2,0,0.4,0,0.7,0c0.7-0.1,1.2-0.5,1.2-1.1c0-0.6-0.5-1-1.2-1C-18.4,2.1-20.3,2.1-22.2,2.1z M-22.1,5.2
	C-22.1,5.2-22.1,5.2-22.1,5.2c-1.8,0-3.7,0-5.5,0c-0.3,0-0.5,0-0.8,0.1c-1,0.4-1.9,0.8-2.7,1.4C-31.5,6.9-31.4,7-31,7.2
	c0.8,0.3,1.5,0.2,2.3-0.1c1-0.4,2-0.6,3-0.1c0.7,0.4,1.4,0.3,2.2,0c0.9-0.4,1.8-0.5,2.7-0.1c0.9,0.3,1.8,0.3,2.7,0
	c1-0.3,2-0.3,3,0.1c0.5,0.2,1.1,0.2,1.6,0.1c0.4-0.1,0.4-0.2,0.1-0.4c-0.5-0.4-1-0.6-1.6-0.9c-0.7-0.3-1.4-0.5-2.2-0.5
	C-18.8,5.3-20.5,5.2-22.1,5.2z"/>
<path d="M20.8,21.3c1.5-0.6,2.2-1.3,2.2-2.4c-0.1-3.1,0-6.3,0-9.1c0-0.9-0.5-1.5-1.5-1.9c-0.3-0.1-0.6-0.3-0.7-0.6
	C20.6,7,20.8,6.8,21,6.6c0.9-1,0.8-1.9-0.2-2.9c-0.6-0.6-1.5-1-2.6-1.4c-2-0.7-4.1-1-6.4-1c-0.7,0-1.4,0-2.1,0.1
	C7,1.6,4.9,2.1,3.3,3c-1,0.6-1.6,1.2-1.8,1.9C1.4,5.5,1.6,6.1,2.2,6.7C2.3,6.8,2.5,7,2.4,7.3C2.3,7.5,2.1,7.7,1.8,7.8
	c-1.1,0.5-1.7,1.1-1.6,2c0,1.1,0,2.2,0,3.2c0,0.4,0,0.9,0,1.3c0,0.5,0,0.9,0,1.4c0,1.1,0,2.2,0,3.3c0,0.9,0.5,1.5,1.7,2.1
	c0.6,0.3,1.2,0.5,2,0.7c3.5,0.8,7.3,1,11.8,0.6C17.7,22.1,19.4,21.8,20.8,21.3z M5.1,3.7c1.1-0.5,2.3-0.8,3.9-1
	c2.7-0.3,5.1-0.1,7.4,0.5c0.6,0.2,1.1,0.3,1.5,0.6c1.5,0.7,1.4,1.5,1.2,2c-0.4,0.7-1.8,1.3-2.8,1.3c-0.7,0-1.3,0-2,0
	c-0.5,0-1,0-1.5,0l-1.5,0l-1.3,0c-1.1,0-2.3,0-3.4,0c-1.1,0-2.5-0.7-2.9-1.4C3.6,5.3,3.5,4.5,5.1,3.7z M2.6,9.4
	C2.7,8.8,3.4,8.6,4,8.5l0.1,0c0.3-0.1,0.5-0.1,0.8-0.1l0.1,0l4.6,0c2.8,0,5.5,0,8.3,0c0.7,0,1.3,0.1,1.8,0.3
	c0.4,0.2,0.7,0.4,0.7,0.7c0,0.3-0.4,0.5-0.7,0.7c-0.6,0.3-1.3,0.5-2.2,0.6c-1.8,0.3-3.7,0.5-5.5,0.5c-0.1,0-0.3,0-0.4,0
	c-2.3,0-4.3-0.1-6.1-0.5c-0.6-0.1-1.2-0.3-1.7-0.4l-0.2-0.1C3.1,10.1,2.5,9.9,2.6,9.4z M2.6,11.8c0.3-0.4,0.8-0.2,1.1-0.1
	c0.1,0,0.2,0.1,0.3,0.1c5.2,1,10.4,1,15.4-0.1c0.1,0,0.1,0,0.2-0.1c0.2-0.1,0.6-0.2,0.9,0.1c0.1,0.2,0.1,0.3,0.1,0.4
	c-0.1,0.3-0.4,0.4-0.7,0.5c-2,0.8-4.3,0.9-6.6,1.1c-0.2,0-0.5,0-0.7,0c-0.2,0-0.4,0-0.6,0c-0.2,0-0.4,0-0.6,0
	c-2.5,0-4.7-0.2-6.7-0.6C4.4,13,4,12.9,3.6,12.8c-0.1,0-0.1,0-0.2-0.1c-0.4-0.1-0.7-0.2-0.8-0.5C2.5,12.1,2.5,12,2.6,11.8z
	 M2.4,13.8c0-0.1,0-0.4,0.2-0.5c0.2-0.1,0.5-0.1,0.9,0c5.3,1.3,10.7,1.3,16.1,0c0.4-0.1,0.7-0.1,0.8,0c0.2,0.1,0.2,0.4,0.2,0.5
	c0,0.4,0,0.9,0,1.3l0,0.5c0,0.2,0,0.3,0,0.5c0,0.4,0,0.8,0,1.2c0.1,0.7-0.6,1-1.1,1.2c-1.4,0.5-3.1,0.8-5.1,0.9
	c-1.1,0.1-2.2,0.1-3.2,0.1c-2,0-3.7-0.1-5.3-0.4l-0.1,0c-0.1,0-0.2,0-0.3-0.1c-2.8-0.5-3.1-0.6-3.1-2.7l0-0.8
	C2.5,15,2.5,14.4,2.4,13.8z M11.3,21.2l-0.1,0c-2.2-0.1-4.5-0.2-6.7-0.7c-0.6-0.1-1.1-0.3-1.6-0.6c-0.2-0.1-0.3-0.2-0.4-0.4
	c0-0.1,0-0.2,0.1-0.3c0.2-0.3,0.6-0.2,0.7-0.1c0,0,0.1,0,0.1,0c3.6,0.9,7.5,1.2,12.3,0.7c1.2-0.1,2.4-0.3,3.7-0.7c0,0,0.1,0,0.1,0
	c0.2-0.1,0.6-0.2,0.8,0.1c0.1,0.1,0.1,0.2,0.1,0.3c-0.1,0.2-0.3,0.3-0.5,0.4L20,20c-0.6,0.3-1.2,0.5-1.7,0.6
	c-2.2,0.5-4.4,0.6-6.8,0.7L11.3,21.2z"/>
</svg>
