<?xml version="1.0" encoding="utf-8"?>
<!-- Generator: Adobe Illustrator 22.1.0, SVG Export Plug-In . SVG Version: 6.00 Build 0)  -->
<svg version="1.1" id="图层_1" xmlns="http://www.w3.org/2000/svg" xmlns:xlink="http://www.w3.org/1999/xlink" x="0px" y="0px"
	 viewBox="0 0 23 23" style="enable-background:new 0 0 23 23;" xml:space="preserve">
<g>
	<path d="M11.7,22.8c-0.6-0.1-1.1-0.2-1.7-0.4c-0.2-0.1-0.5-0.2-0.7-0.3c-0.8-0.3-1.3-0.9-1.5-1.7c-0.1-0.2-0.2-0.3-0.4-0.4
		c-3-0.9-4.9-2.8-5.6-5.8c-0.1-0.5-0.2-0.9-0.2-1.4c0-0.6,0-1.2,0-1.7c0-0.2-0.1-0.2-0.2-0.2c-0.2,0-0.3,0-0.5,0
		c-0.1,0-0.2,0-0.2-0.2C0.1,9.3,0.1,7.8,1,6.5c0.9-1.4,2.2-2.1,3.9-2.2c0.6,0,1.2,0,1.8,0c0.2,0,0.2,0,0.2-0.2
		C7,2.2,8.4,0.6,10.3,0.3c0.2,0,0.3,0,0.5,0c0.1,0,0.2,0.1,0.2,0.2c0,0.3,0,0.6,0,0.9c0,0.2-0.1,0.3-0.3,0.3C10,1.7,9.5,2,9,2.5
		c-0.4,0.5-0.7,1-0.7,1.7c0,0.2,0.1,0.2,0.2,0.2c0.6,0,1.2,0,1.8,0c2,0,3.3,1,4.2,2.7c0.1,0.1,0.1,0.2,0.3,0.2
		c1.2,0.1,2.2,0.6,3,1.4C18.2,9,18.6,9.4,19,9.8c0.2,0.2,0.2,0.1,0.4,0c0.8-1,0.8-2.4-0.1-3.4c-0.1-0.1-0.1-0.2,0-0.3
		c0.2-0.2,0.4-0.4,0.7-0.7c0.1-0.1,0.2-0.1,0.3,0c1.4,1.5,1.4,3.9,0,5.4c-0.1,0.1-0.1,0.2,0,0.3c0.4,0.4,0.8,0.8,1.2,1.2
		c0.7,0.7,1.2,1.6,1.3,2.5c0,0.1,0,0.1,0,0.1c0,0.4,0,0.8,0,1.2c0,0,0,0,0,0.1c-0.3,1.8-1.3,2.9-2.8,3.7c-0.1,0.1-0.2,0.1-0.3-0.1
		c-0.1-0.1-0.2-0.2-0.3-0.3c-0.1-0.2-0.2-0.2-0.4,0c-0.4,0.4-0.8,0.8-1.2,1.2C16.9,21.5,16,22,15,22.4c-0.6,0.2-1.2,0.3-1.8,0.4
		C12.7,22.8,12.2,22.8,11.7,22.8z M8.6,17.6c0,1,0.2,2,0.7,2.9c0.1,0.1,0.1,0.2,0.3,0.3c0.9,0.5,1.9,0.7,3,0.7
		c1.1,0,2.2-0.3,3.2-0.9c1-0.6,1.7-1.4,2.4-2.1c0.1-0.1,0-0.1,0-0.2c-0.2-0.2-0.4-0.4-0.5-0.5c-1.9-1.9-3.8-3.8-5.7-5.7
		c-0.1-0.1-0.2-0.1-0.4,0c-0.4,0.4-0.8,0.8-1.1,1.1C9.2,14.4,8.6,15.9,8.6,17.6z M14.1,8.6c-0.7,0-1.6,0.5-2.2,1.3
		c-0.1,0.1-0.1,0.2,0,0.3c2.7,2.7,5.3,5.3,8,8c0.1,0.1,0.2,0.1,0.4,0c1.5-1.2,1.7-3.5,0.3-4.9c-1.2-1.3-2.5-2.5-3.8-3.8
		C16.1,8.9,15.4,8.6,14.1,8.6z M6.1,9.6c1.4,0,2.7,0,4.1,0c0.2,0,0.3,0,0.4-0.2c0.6-0.9,1.4-1.6,2.4-2c0.2-0.1,0.2-0.1,0.1-0.3
		c-0.7-1-1.6-1.5-2.8-1.5c-1.7,0-3.5,0-5.2,0c-0.4,0-0.9,0.1-1.3,0.2c-1.2,0.5-2.2,1.7-2,3.5c0,0.2,0.1,0.3,0.3,0.3
		C3.3,9.6,4.7,9.6,6.1,9.6z M10.6,11c-0.1,0-0.2,0-0.3,0c-2.3,0-4.7,0-7,0c-0.1,0-0.1,0-0.2,0C3,10.9,3,11,3,11.1
		c0,0.8-0.1,1.6,0.1,2.3c0.4,2.5,1.7,4.2,4,5.2c0.2,0.1,0.2,0.1,0.2-0.2c-0.2-2,0.3-3.8,1.5-5.5c0.5-0.7,1.1-1.2,1.7-1.8
		C10.5,11.1,10.6,11.1,10.6,11z"/>
</g>
</svg>
