<?xml version="1.0" encoding="utf-8"?>
<!-- Generator: Adobe Illustrator 22.1.0, SVG Export Plug-In . SVG Version: 6.00 Build 0)  -->
<svg version="1.1" id="图层_1" xmlns="http://www.w3.org/2000/svg" xmlns:xlink="http://www.w3.org/1999/xlink" x="0px" y="0px"
	 viewBox="0 0 44 35" style="enable-background:new 0 0 44 35;" xml:space="preserve">
<style type="text/css">
	.st0{fill:#4A5568;}
</style>
<path class="st0" d="M43.5,20.5c0-3.8,0-11.6,0-11.7c-0.1-0.6-0.4-1.1-0.9-1.5c-1.9-1.7-3.8-3.4-5.7-5c-0.6-0.5-1.1-1-1.8-1.5
	C34,0,32.9-0.2,31.6,0.2c-0.8,0.2-1.5,0.7-2.2,1.3c-2.2,1.9-4.3,3.9-6.5,5.8c-0.7,0.6-1,1.3-1,2.3c0,2.2,0,4.4,0,6.5
	c0,0.8,0,0.8-0.8,0.8h-3.6c0.1-0.2,0.1-0.3,0.2-0.4c0.7-1.7,1-3.4,0.7-5.1c-0.3-1.5-1.1-2.6-2.7-3.1c-0.7-0.2-1,0-1.1,0.6
	c-0.1,0.5-0.3,1.1-0.4,1.6c-0.3,1.9-1.1,3.6-3,4.6c-1.2,0.6-2.1,1.6-2.8,2.7c-0.1,0.2-0.2,0.3-0.4,0.5c-0.3,0.4-0.7,0.6-1.2,0.7
	c-0.2,0-0.3,0-0.4-0.3c-0.1-0.8-0.7-1.4-1.5-1.4c-1.2,0-2.4,0-3.5,0c-0.8,0-1.5,0.7-1.5,1.5c0,4.9,0,9.9,0,14.8
	C0,34.3,0.6,35,1.5,35c1.2,0,2.4,0,3.6,0c0.8,0,1.4-0.7,1.5-1.5c0-0.2,0-0.4,0-0.7c0.2,0.1,0.4,0.1,0.5,0.2c2.5,1,5.1,1.5,7.7,1.4
	c2.2-0.1,4.5,0,6.8,0c0.6,0,1.2,0,1.8-0.2c0.1,0,0.2,0,0.2,0c0.4,0.2,0.9,0.2,1.3,0.2c4.7,0,9.3,0,14,0c0.6,0,1.2,0,1.9,0
	c1.3,0,2.2-0.7,2.6-2c0,0,0.1-11.4,0.1-11.4C43.4,20.8,43.5,20.6,43.5,20.5z M5.2,33.2c0,0.3-0.1,0.4-0.4,0.4c-1,0-2,0-2.9,0
	c-0.4,0-0.5-0.1-0.5-0.5c0-2.4,0-4.8,0-7.1c0-2.4,0-4.7,0-7.1c0-0.4,0.1-0.5,0.5-0.5c1,0,2,0,2.9,0c0.3,0,0.4,0.1,0.4,0.4
	C5.2,23.7,5.2,28.5,5.2,33.2z M18.8,30.3c1.1,0,2.2,0,3.4,0c0.2,0,0.3,0,0.5,0c0.7,0.1,1.1,0.7,1.1,1.3c0,0.6-0.5,1.2-1.1,1.3
	c-0.2,0-0.4,0-0.5,0c-2.5,0-5.1,0-7.6,0c-2.3,0.1-4.5-0.3-6.7-1.2c-0.4-0.2-1-0.2-1.2-0.5C6.4,31,6.5,30.5,6.5,30c0-3.1,0-6.3,0-9.4
	c0-0.3,0-0.4,0.4-0.4c1-0.1,1.8-0.4,2.3-1.3c0.9-1.4,2.1-2.5,3.5-3.4c1.6-1,2.3-2.6,2.7-4.4c0.1-0.5,0.2-1,0.4-1.6
	c0.9,0.5,1.3,1.4,1.3,2.3c0.1,1.8-0.3,3.6-1.3,5.1c-0.2,0.2-0.2,0.5-0.1,0.7c0.2,0.3,0.4,0.3,0.7,0.3c2.5,0,5,0,7.4,0
	c0.6,0,1.1,0.2,1.4,0.7c0.5,0.9-0.1,2-1.3,2c-1.6,0-3.2,0-4.8,0c-0.1,0-0.3,0-0.4,0c-0.5,0-0.7,0.3-0.7,0.6c0,0.4,0.3,0.7,0.7,0.7
	c0.4,0,0.7,0,1.1,0c1.8,0,3.5,0,5.3,0c0.7,0,1.3,0.5,1.4,1.2c0.1,0.7-0.4,1.3-1,1.5c-0.2,0-0.3,0-0.5,0c-2.1,0-4.1,0-6.2,0
	c-0.5,0-0.8,0.2-0.8,0.6c0,0.4,0.3,0.7,0.8,0.7c1.9,0,3.7,0,5.6,0c1,0,1.7,1,1.3,1.9c-0.2,0.5-0.7,0.8-1.4,0.8c-1.8,0-3.5,0-5.3,0
	c-0.1,0-0.3,0-0.4,0c-0.4,0-0.7,0.3-0.6,0.7C18.1,30,18.4,30.3,18.8,30.3z M40.9,33c-0.5,0-1,0-1.5,0c-4.7,0-9.4,0-14.1,0
	c-0.3,0-0.5,0-0.3-0.4c0.3-0.8,0.2-1.6-0.2-2.3c2.3-0.3,3.2-2.7,2-4.2c-0.1-0.2-0.1-0.2,0.1-0.4c1.6-1.3,1.5-3.4-0.3-4.5
	c-0.2-0.1-0.2-0.2-0.1-0.3c1-2-0.2-4-2.5-4.1c-0.7,0-0.7,0-0.7-0.7c0-2.2,0-4.3,0-6.5c0-0.6,0.2-1,0.6-1.4c2.2-2,4.4-4,6.7-5.9
	C32,1,33.4,1,34.8,2.2c0.1,0.1,0.2,0.2,0.3,0.2c2.2,1.9,4.4,3.9,6.5,5.8c0.3,0.3,0.5,0.7,0.5,1.1c0,7.4,0,14.9,0,22.3
	C42.2,32.5,41.7,33,40.9,33z"/>
<path class="st0" d="M32.7,4.2c-1.4,0-2.4,1-2.4,2.4c0,1.3,1.1,2.4,2.4,2.4c1.3,0,2.4-1.1,2.4-2.4C35.1,5.3,34.1,4.2,32.7,4.2z
	 M32.7,7.7c-0.6,0-1.1-0.5-1.1-1.1c0-0.6,0.5-1,1.1-1c0.6,0,1,0.5,1,1C33.8,7.2,33.3,7.7,32.7,7.7z"/>
<g>
	<path class="st0" d="M29,22.1c-0.4,0-0.6-0.2-0.6-0.7c0-0.4,0.2-0.7,0.6-0.7h1.2l-1.8-3c-0.1-0.2-0.2-0.5-0.2-0.7
		c0-0.3,0.1-0.6,0.3-0.8c0.2-0.2,0.5-0.3,0.8-0.3c0.3,0,0.5,0.2,0.7,0.5l2.6,4.7l2.6-4.7c0.2-0.3,0.4-0.5,0.7-0.5
		c0.3,0,0.5,0.1,0.8,0.3c0.2,0.2,0.3,0.5,0.3,0.8c0,0.2-0.1,0.5-0.2,0.7l-1.8,3h1.2c0.4,0,0.6,0.2,0.6,0.7c0,0.5-0.2,0.7-0.6,0.7h-2
		l-0.6,1.1h2.6c0.4,0,0.6,0.2,0.6,0.7c0,0.5-0.2,0.7-0.6,0.7h-2.6v1.9c0,0.4-0.1,0.7-0.3,0.9c-0.2,0.2-0.4,0.3-0.7,0.3
		c-0.3,0-0.5-0.1-0.7-0.3c-0.2-0.2-0.3-0.5-0.3-0.9v-1.9H29c-0.4,0-0.6-0.2-0.6-0.7c0-0.4,0.2-0.7,0.6-0.7h2.6v0L31,22.1H29z"/>
</g>
</svg>
